<svg viewBox="0 0 800 600" xmlns="http://www.w3.org/2000/svg" role="img" aria-label="Isometric UI illustration showing modern web interface cards and analytics">
  <defs>
    <!-- Site gradient colors -->
    <linearGradient id="primaryGradient" x1="0%" y1="0%" x2="100%" y2="100%">
      <stop offset="0%" stop-color="#4F46E5"/>
      <stop offset="100%" stop-color="#8B5CF6"/>
    </linearGradient>
    
    <!-- 3D shadow filters -->
    <filter id="cardShadow" x="-50%" y="-50%" width="200%" height="200%">
      <feDropShadow dx="0" dy="8" stdDeviation="12" flood-color="rgba(20,24,40,0.15)"/>
    </filter>
    
    <filter id="deepShadow" x="-50%" y="-50%" width="200%" height="200%">
      <feDropShadow dx="0" dy="16" stdDeviation="20" flood-color="rgba(20,24,40,0.12)"/>
    </filter>
    
    <!-- Gloss highlights -->
    <linearGradient id="glossHighlight" x1="0%" y1="0%" x2="100%" y2="100%">
      <stop offset="0%" stop-color="rgba(255,255,255,0.8)"/>
      <stop offset="50%" stop-color="rgba(255,255,255,0.3)"/>
      <stop offset="100%" stop-color="rgba(255,255,255,0)"/>
    </linearGradient>
    
    <!-- Inner shadow for depth -->
    <filter id="innerShadow" x="-50%" y="-50%" width="200%" height="200%">
      <feGaussianBlur in="SourceAlpha" stdDeviation="3" result="blur"/>
      <feOffset dx="0" dy="2" result="offset"/>
      <feComposite in="offset" in2="blur" operator="over"/>
      <feColorMatrix type="matrix" values="0 0 0 0 0 0 0 0 0 0 0 0 0 0 0 0 0 0 0.1 0"/>
    </filter>
  </defs>

  <!-- Background ambient elements -->
  <circle cx="150" cy="120" r="60" fill="url(#primaryGradient)" opacity="0.08"/>
  <circle cx="650" cy="480" r="80" fill="url(#primaryGradient)" opacity="0.06"/>
  <circle cx="700" cy="100" r="40" fill="url(#primaryGradient)" opacity="0.1"/>

  <!-- Main Dashboard Card (Isometric 3D) -->
  <g transform="translate(200,100) rotateX(60) rotateZ(-45)" class="card">
    <!-- Card base with 3D depth -->
    <rect x="0" y="0" width="400" height="280" rx="20" fill="#FFFFFF" filter="url(#cardShadow)"/>
    
    <!-- 3D depth layer -->
    <rect x="8" y="8" width="400" height="280" rx="20" fill="#F8FAFC" opacity="0.7"/>
    
    <!-- Gloss highlight overlay -->
    <rect x="0" y="0" width="400" height="280" rx="20" fill="url(#glossHighlight)" opacity="0.4"/>
    
    <!-- Header bar -->
    <rect x="0" y="0" width="400" height="60" rx="20" fill="#F1F5F9"/>
    <rect x="0" y="0" width="400" height="60" rx="20" fill="url(#glossHighlight)" opacity="0.3"/>
    
    <!-- Traffic light dots -->
    <circle cx="30" cy="30" r="6" fill="#EF4444"/>
    <circle cx="50" cy="30" r="6" fill="#F59E0B"/>
    <circle cx="70" cy="30" r="6" fill="#10B981"/>
    
    <!-- Address bar -->
    <rect x="100" y="15" width="200" height="30" rx="15" fill="#FFFFFF"/>
    <rect x="110" y="20" width="120" height="20" rx="10" fill="#E2E8F0"/>
    
    <!-- Sidebar -->
    <rect x="0" y="60" width="120" height="220" rx="0" fill="#F8FAFC"/>
    <rect x="0" y="60" width="120" height="220" rx="0" fill="url(#glossHighlight)" opacity="0.2"/>
    
    <!-- Sidebar items -->
    <rect x="20" y="80" width="80" height="16" rx="8" fill="#E2E8F0"/>
    <rect x="20" y="110" width="60" height="12" rx="6" fill="#F1F5F9"/>
    <rect x="20" y="130" width="70" height="12" rx="6" fill="#F1F5F9"/>
    <rect x="20" y="150" width="50" height="12" rx="6" fill="#F1F5F9"/>
    
    <!-- Main content area -->
    <rect x="140" y="80" width="240" height="32" rx="16" fill="url(#primaryGradient)"/>
    <rect x="140" y="80" width="240" height="32" rx="16" fill="url(#glossHighlight)" opacity="0.3"/>
    
    <rect x="140" y="125" width="180" height="14" rx="7" fill="#E2E8F0"/>
    <rect x="140" y="150" width="200" height="14" rx="7" fill="#E2E8F0"/>
    
    <!-- Metric cards -->
    <g transform="translate(140,180)">
      <rect x="0" y="0" width="110" height="80" rx="16" fill="#FFFFFF" filter="url(#innerShadow)"/>
      <rect x="0" y="0" width="110" height="80" rx="16" fill="url(#glossHighlight)" opacity="0.2"/>
      <rect x="12" y="15" width="50" height="10" rx="5" fill="#E2E8F0"/>
      <rect x="12" y="35" width="80" height="8" rx="4" fill="#F1F5F9"/>
      <rect x="12" y="50" width="60" height="8" rx="4" fill="#F1F5F9"/>
      <circle cx="95" cy="25" r="8" fill="url(#primaryGradient)"/>
    </g>
    
    <g transform="translate(270,180)">
      <rect x="0" y="0" width="110" height="80" rx="16" fill="#FFFFFF" filter="url(#innerShadow)"/>
      <rect x="0" y="0" width="110" height="80" rx="16" fill="url(#glossHighlight)" opacity="0.2"/>
      <rect x="12" y="15" width="50" height="10" rx="5" fill="#E2E8F0"/>
      <rect x="12" y="35" width="80" height="8" rx="4" fill="#F1F5F9"/>
      <rect x="12" y="50" width="60" height="8" rx="4" fill="#F1F5F9"/>
      <circle cx="95" cy="25" r="8" fill="#10B981"/>
    </g>
    
    <!-- Chart area -->
    <rect x="140" y="280" width="240" height="100" rx="16" fill="#FFFFFF" filter="url(#innerShadow)"/>
    <rect x="140" y="280" width="240" height="100" rx="16" fill="url(#glossHighlight)" opacity="0.2"/>
    
    <!-- Chart line -->
    <polyline fill="none" stroke="url(#primaryGradient)" stroke-width="4" stroke-linecap="round"
      points="160,320 200,310 240,315 280,300 320,305 360,290 400,295"/>
    
    <!-- Chart dots -->
    <circle cx="320" cy="290" r="5" fill="#4F46E5"/>
    <circle cx="280" cy="300" r="5" fill="#8B5CF6"/>
  </g>

  <!-- Floating UI Card 1: Button Set (Isometric) -->
  <g transform="translate(100,350) rotateX(60) rotateZ(-30)" class="card">
    <rect x="0" y="0" width="120" height="80" rx="16" fill="#FFFFFF" filter="url(#deepShadow)"/>
    <rect x="0" y="0" width="120" height="80" rx="16" fill="url(#glossHighlight)" opacity="0.3"/>
    
    <!-- Buttons -->
    <rect x="15" y="20" width="25" height="40" rx="12" fill="url(#primaryGradient)"/>
    <rect x="15" y="20" width="25" height="40" rx="12" fill="url(#glossHighlight)" opacity="0.4"/>
    
    <rect x="50" y="20" width="25" height="40" rx="12" fill="#E2E8F0"/>
    <rect x="50" y="20" width="25" height="40" rx="12" fill="url(#glossHighlight)" opacity="0.3"/>
    
    <rect x="85" y="20" width="25" height="40" rx="12" fill="#F1F5F9"/>
    <rect x="85" y="20" width="25" height="40" rx="12" fill="url(#glossHighlight)" opacity="0.2"/>
  </g>

  <!-- Floating UI Card 2: Chart Chips (Isometric) -->
  <g transform="translate(500,320) rotateX(60) rotateZ(20)" class="card">
    <rect x="0" y="0" width="140" height="100" rx="16" fill="#FFFFFF" filter="url(#deepShadow)"/>
    <rect x="0" y="0" width="140" height="100" rx="16" fill="url(#glossHighlight)" opacity="0.3"/>
    
    <!-- Chart chip 1 -->
    <rect x="15" y="15" width="50" height="30" rx="8" fill="url(#primaryGradient)"/>
    <rect x="15" y="15" width="50" height="30" rx="8" fill="url(#glossHighlight)" opacity="0.4"/>
    
    <!-- Chart chip 2 -->
    <rect x="75" y="15" width="50" height="30" rx="8" fill="#E2E8F0"/>
    <rect x="75" y="15" width="50" height="30" rx="8" fill="url(#glossHighlight)" opacity="0.3"/>
    
    <!-- Mini bars -->
    <rect x="20" y="55" width="8" height="20" rx="4" fill="url(#primaryGradient)"/>
    <rect x="35" y="55" width="8" height="15" rx="4" fill="url(#primaryGradient)"/>
    <rect x="50" y="55" width="8" height="25" rx="4" fill="url(#primaryGradient)"/>
    
    <rect x="80" y="55" width="8" height="18" rx="4" fill="#94A3B8"/>
    <rect x="95" y="55" width="8" height="22" rx="4" fill="#94A3B8"/>
    <rect x="110" y="55" width="8" height="16" rx="4" fill="#94A3B8"/>
  </g>

  <!-- Ambient depth shadows -->
  <ellipse cx="400" cy="500" rx="200" ry="40" fill="rgba(20,24,40,0.08)"/>
</svg>
