<svg width="880" height="560" viewBox="0 0 880 560" fill="none" xmlns="http://www.w3.org/2000/svg" role="img" aria-label="Isometric UI illustration showing modern web interface cards and analytics">
  <defs>
    <!-- Gradients (site paletine uyumlu) -->
    <linearGradient id="g-ui" x1="0" y1="0" x2="1" y2="1">
      <stop offset="0" stop-color="#4F46E5"/>
      <stop offset="1" stop-color="#9333EA"/>
    </linearGradient>
    <linearGradient id="g-accent" x1="0" y1="0" x2="1" y2="1">
      <stop offset="0" stop-color="#60A5FA"/>
      <stop offset="1" stop-color="#A78BFA"/>
    </linearGradient>
    <filter id="f-soft" x="-20%" y="-20%" width="140%" height="140%">
      <feOffset dy="18" />
      <feGaussianBlur stdDeviation="18" />
      <feColorMatrix type="matrix" values="0 0 0 0 0.10  0 0 0 0 0.12  0 0 0 0 0.18  0 0 0 0.22 0"/>
      <feBlend in="SourceGraphic" mode="normal"/>
    </filter>
    <filter id="f-card" x="-20%" y="-20%" width="140%" height="140%">
      <feDropShadow dx="0" dy="12" stdDeviation="16" flood-color="#101828" flood-opacity="0.18"/>
    </filter>
  </defs>

  <!-- Zemin "gölge" oval -->
  <ellipse cx="640" cy="460" rx="160" ry="34" fill="#000" opacity="0.08"/>

  <!-- Ana isometric pencere -->
  <g transform="skewX(-12) translate(60,20)" filter="url(#f-soft)">
    <rect x="420" y="120" width="360" height="240" rx="22" fill="white"/>
    <!-- Top bar -->
    <rect x="440" y="140" width="60" height="14" rx="7" fill="url(#g-accent)" opacity="0.85"/>
    <rect x="510" y="140" width="140" height="14" rx="7" fill="#EEF2FF"/>
    <!-- Ana başlık satırı -->
    <rect x="440" y="180" width="240" height="20" rx="10" fill="url(#g-ui)"/>
    <!-- Satırlar -->
    <rect x="440" y="220" width="200" height="14" rx="7" fill="#EEF2FF"/>
    <rect x="440" y="245" width="180" height="14" rx="7" fill="#EEF2FF"/>
    <!-- Sağ kart -->
    <g>
      <rect x="660" y="208" width="96" height="64" rx="12" fill="#F8FAFF" stroke="#EEF2FF"/>
      <circle cx="684" cy="240" r="6" fill="#22C55E"/>
      <rect x="700" y="236" width="40" height="8" rx="4" fill="#E5E7EB"/>
    </g>
    <!-- Alt çizgi grafik -->
    <path d="M440 300 C470 290, 500 320, 530 310 S 590 290, 620 300 S 680 330, 720 310"
          fill="none" stroke="url(#g-ui)" stroke-width="4" stroke-linecap="round"/>
  </g>

  <!-- Sol altta yüzen küçük kart -->
  <g class="card" transform="skewX(-12) translate(120,320)" filter="url(#f-card)">
    <rect x="0" y="0" width="180" height="110" rx="16" fill="white"/>
    <rect x="20" y="24" width="84" height="14" rx="7" fill="#EEF2FF"/>
    <rect x="20" y="48" width="120" height="12" rx="6" fill="#EEF2FF"/>
    <rect x="20" y="72" width="96" height="12" rx="6" fill="url(#g-accent)"/>
  </g>

  <!-- Sağ üstte mini widget -->
  <g class="card" transform="skewX(-12) translate(700,60)" filter="url(#f-card)">
    <rect x="0" y="0" width="120" height="80" rx="14" fill="white"/>
    <rect x="18" y="20" width="84" height="12" rx="6" fill="url(#g-accent)"/>
    <rect x="18" y="44" width="64" height="10" rx="5" fill="#EEF2FF"/>
  </g>
</svg>
